<?xml version="1.0"?>
<svg width="760" height="277" xmlns="http://www.w3.org/2000/svg" xmlns:svg="http://www.w3.org/2000/svg" version="1.1">
 <g class="layer">
  <title>Layer 1</title>
  <g id="svg_2">
   <circle cx="170.35" cy="146" fill="#209cee" id="svg_3" r="166.67" transform="matrix(0.815984 0 0 0.815984 0 20.8696)"/>
   <path d="m47.46,117.67l0,0q10.09,0 10.09,5.11l0,0q0,5.92 -11.6,5.92l0,0q-2.55,0 -5.58,-0.94l0,0q-3.35,2.32 -5.16,5.8q-1.8,3.48 -1.8,10.04q0,6.56 5.17,9.69q5.16,3.14 12.18,3.14q7.01,0 11.36,-2.27q4.35,-2.26 7.6,-4.94q3.26,-2.65 5.29,-4.93q2.03,-2.25 2.95,-2.25l0,0q0.94,0 1.52,1.21q0.58,1.22 0.58,3.19l0,0q0,9.28 -10.27,16.3q-10.28,7.03 -24.54,7.03l0,0q-22.28,0 -28.89,-12.89l0,0q-2.32,-4.51 -2.32,-10.89l0,0q0,-16.6 16.6,-23.2l0,0q-8.48,-5.93 -8.48,-17.87l0,0q0,-5.69 3.13,-10.56l0,0q-2.9,-3.25 -4.69,-6.85q-1.8,-3.59 -1.8,-5.46l0,0q0,-3.24 2.32,-3.24l0,0q1.63,0 4.01,2.5q2.37,2.48 3.88,4q1.5,1.51 3.13,2.43l0,0q9.87,-6.03 23.21,-6.03q13.34,0 17.76,7.43l0,0q1.62,2.77 1.62,6.83l0,0q0,6.15 -5.34,10.33q-5.34,4.17 -14.03,4.17q-8.71,0 -16.25,-5.56l0,0q-0.11,0.47 -0.11,0.91l0,0l0,2.56q0,2.08 1.34,4.94q1.34,2.83 3.3,4.68l0,0q1.74,-0.33 3.84,-0.33l-0.02,0zm14.38,-19.97l0,0q0,-4.51 -7.42,-4.51q-7.43,0 -11.95,4.51l0,0q6.27,3.84 12.83,3.84q6.54,0 6.54,-3.84zm83.65,44.33l0,0q2.08,0 2.08,5.33l0,0q0,2.9 -2.43,7.03q-2.43,4.11 -6.32,7.54q-3.9,3.42 -8.66,5.63q-4.75,2.2 -9.28,2.2l0,0q-6.14,0 -8.23,-10.8l0,0q-3.01,4.99 -7.9,8.18q-4.86,3.19 -13.05,3.19q-8.17,0 -13.17,-5.11q-4.98,-5.11 -4.86,-12.42l0,0q0,-19.72 13.1,-31.09l0,0q5.58,-4.75 10.4,-6.27q4.82,-1.51 10.15,-1.51q5.34,0 8.71,1.87l0,0q1.62,-3.37 3.7,-3.37l0,0q4.06,0 7.72,3.53q3.66,3.55 3.66,6.67l0,0q-1.62,3.84 -4.76,9.17l0,0q-0.93,5.33 -0.93,14.97q0,9.64 2.43,9.64l0,0q3.01,0 14.61,-12.07l0,0q2.1,-2.32 3.03,-2.32l0,0.01zm-54.77,6.96l0,0q0,8.93 6.63,8.93l0,0q7.07,-0.11 11.72,-7.54l0,0q1.62,-2.55 2.65,-6.27l0,0q0,-12.98 2.33,-22.27l0,0q-9.4,1.85 -16.36,9.06q-6.96,7.19 -6.96,18.1l-0.01,-0.01zm85.16,-30.05l0,0q13.69,0 13.69,4.99l0,0q0,2.77 -1.98,9.16l0,0q-10.44,17.29 -21.11,24.49l0,0q5.11,1.27 9.75,1.27q4.64,0 8.64,-2.56q3.99,-2.55 7.03,-5.67q3.01,-3.14 5.04,-5.69q2.02,-2.56 3.3,-2.56l0,0q1.63,0 1.63,4.41q0,4.41 -2.56,8.76q-2.55,4.36 -7.07,7.7l0,0q-9.97,7.43 -24.01,7.43l0,0q-5.69,0 -9.87,-1.45q-4.17,-1.45 -5.97,-2.73q-1.81,-1.27 -1.81,-3.54q0,-2.26 0.82,-5.96l0,0q1.74,-2.45 5.62,-5.34q3.88,-2.9 7.77,-6.03q3.9,-3.13 6.85,-6.27q2.97,-3.13 2.97,-6.14l0,0q0,-1.16 -5.47,-1.16l0,0l-19.14,1.04q-3.01,0 -4.46,-1.8q-1.44,-1.8 -1.44,-4.12l0,0q0,-5.34 4.01,-9.39q4,-4.06 10.49,-4.18l0,0q2.78,0 6.62,1.85q3.82,1.85 6.1,2.68q2.25,0.81 4.58,0.81l-0.02,0zm51.4,41.99l0,0q-5.8,8 -15.55,8l0,0q-7.89,0 -12.58,-3.3q-4.7,-3.3 -4.7,-10.51l0,0q0,-3.01 0.86,-5.56q0.87,-2.56 2.84,-6.27l0,0l3.37,-27.49q3.59,-2.79 9.74,-2.79l0,0q5.22,0 5.92,6.96l0,0q0.24,2.08 0.24,4.93q0,2.84 -0.94,5.98l0,0q-4.64,16 -4.53,21.46l0,0q0,4.18 4.88,4.18q4.87,0 7.19,-3.14q2.33,-3.13 3.95,-7.77l0,0q3.01,-12.88 5.62,-21.24q2.61,-8.35 3.3,-9.97l0,0q1.16,-2.79 4.41,-2.9l0,0q3.24,0.11 6.14,4.59q2.9,4.46 2.9,6.9l0,0q-0.23,8.13 -10.09,40.96l0,0q7.54,-5.92 14.97,-14.5l0,0q2.55,-3.03 4.29,-5.06q1.74,-2.03 2.78,-2.03l0,0q1.63,0 1.63,3.72l0,0q0,7.3 -8.19,17.05q-8.17,9.74 -20.01,15.19l0,0q-1.39,4.63 -3.01,8.83q-1.63,4.17 -4.18,7.29l0,0q-5.57,6.74 -16.93,6.74l0,0q-7.67,0 -13.06,-4.41q-5.39,-4.4 -5.39,-11.02l0,0q0,-3.7 2.5,-5.92q2.48,-2.2 6.83,-3.66q4.35,-1.45 10.15,-2.55q5.8,-1.11 12.43,-2.73l0,0q1.62,-6.96 2.2,-9.99l0.02,0.03zm-15.79,31.33l0,0q5.46,0 9.86,-9.51l0,0q-4.17,0.8 -7.41,1.22q-3.26,0.4 -5.57,0.74l0,0q-4.64,0.71 -4.53,2.45l0,0q0,2.19 2.61,3.7q2.61,1.52 5.04,1.39l0,0.01z" fill="#e7d045" id="svg_4"/>
   <path d="m461.3,118.63l0,0q12.36,0 12.36,6.26l0,0q0,7.25 -14.21,7.25l0,0q-3.12,0 -6.84,-1.15l0,0q-4.1,2.84 -6.32,7.11q-2.21,4.26 -2.21,12.3q0,8.04 6.34,11.87q6.32,3.85 14.93,3.85q8.59,0 13.92,-2.78q5.33,-2.77 9.32,-6.05q3.99,-3.25 6.48,-6.04q2.49,-2.76 3.61,-2.76l0,0q1.15,0 1.86,1.48q0.71,1.5 0.71,3.91l0,0q0,11.37 -12.58,19.98q-12.6,8.61 -30.07,8.61l0,0q-27.31,0 -35.41,-15.8l0,0q-2.84,-5.53 -2.84,-13.35l0,0q0,-20.34 20.34,-28.43l0,0q-10.39,-7.27 -10.39,-21.9l0,0q0,-6.97 3.83,-12.94l0,0q-3.56,-3.98 -5.75,-8.39q-2.21,-4.4 -2.21,-6.69l0,0q0,-3.97 2.84,-3.97l0,0q2,0 4.92,3.06q2.9,3.04 4.76,4.9q1.84,1.85 3.83,2.98l0,0q12.09,-7.39 28.44,-7.39q16.35,0 21.76,9.11l0,0q1.99,3.39 1.99,8.37l0,0q0,7.54 -6.55,12.66q-6.54,5.11 -17.2,5.11q-10.67,0 -19.91,-6.81l0,0q-0.14,0.57 -0.14,1.12l0,0l0,3.14q0,2.55 1.64,6.05q1.64,3.47 4.05,5.74l0,0q2.13,-0.41 4.7,-0.41zm17.62,-24.47l0,0q0,-5.53 -9.09,-5.53q-9.1,0 -14.65,5.53l0,0q7.68,4.7 15.72,4.7q8.02,0 8.02,-4.7zm102.52,54.33l0,0q2.55,0 2.55,6.53l0,0q0,3.56 -2.98,8.61q-2.98,5.04 -7.74,9.24q-4.78,4.19 -10.61,6.9q-5.82,2.7 -11.37,2.7l0,0q-7.52,0 -10.09,-13.23l0,0q-3.69,6.12 -9.68,10.03q-5.96,3.91 -15.99,3.91q-10.01,0 -16.14,-6.26q-6.1,-6.26 -5.96,-15.22l0,0q0,-24.17 16.05,-38.1l0,0q6.84,-5.82 12.74,-7.68q5.91,-1.85 12.44,-1.85q6.54,0 10.67,2.29l0,0q1.99,-4.13 4.54,-4.13l0,0q4.97,0 9.46,4.32q4.48,4.35 4.48,8.18l0,0q-1.99,4.7 -5.83,11.24l0,0q-1.14,6.53 -1.14,18.34q0,11.81 2.98,11.81l0,0q3.69,0 17.91,-14.79l0,0q2.57,-2.84 3.71,-2.84zm-67.12,8.53l0,0q0,10.94 8.12,10.94l0,0q8.67,-0.14 14.36,-9.24l0,0q1.99,-3.12 3.25,-7.69l0,0q0,-15.91 2.85,-27.29l0,0q-11.52,2.27 -20.05,11.1q-8.53,8.81 -8.53,22.18zm104.37,-36.83l0,0q16.78,0 16.78,6.12l0,0q0,3.4 -2.43,11.22l0,0q-12.79,21.19 -25.87,30.01l0,0q6.26,1.56 11.95,1.56q5.69,0 10.59,-3.14q4.89,-3.12 8.61,-6.95q3.69,-3.85 6.18,-6.97q2.48,-3.14 4.04,-3.14l0,0q2,0 2,5.41q0,5.41 -3.14,10.74q-3.12,5.34 -8.67,9.44l0,0q-12.22,9.11 -29.42,9.11l0,0q-6.97,0 -12.09,-1.78q-5.11,-1.78 -7.32,-3.34q-2.22,-1.56 -2.22,-4.34q0,-2.77 1.01,-7.31l0,0q2.13,-3 6.89,-6.55q4.76,-3.56 9.52,-7.39q4.78,-3.83 8.39,-7.68q3.64,-3.83 3.64,-7.53l0,0q0,-1.42 -6.7,-1.42l0,0l-23.46,1.27q-3.69,0 -5.47,-2.2q-1.77,-2.21 -1.77,-5.05l0,0q0,-6.54 4.91,-11.51q4.9,-4.98 12.86,-5.12l0,0q3.41,0 8.11,2.27q4.68,2.27 7.47,3.28q2.76,0.99 5.61,0.99zm62.99,51.46l0,0q-7.11,9.81 -19.06,9.81l0,0q-9.67,0 -15.42,-4.04q-5.76,-4.05 -5.76,-12.88l0,0q0,-3.69 1.06,-6.81q1.07,-3.14 3.48,-7.68l0,0l4.12,-33.69q4.41,-3.42 11.95,-3.42l0,0q6.4,0 7.25,8.53l0,0q0.3,2.55 0.3,6.04q0,3.48 -1.15,7.33l0,0q-5.69,19.61 -5.55,26.3l0,0q0,5.12 5.98,5.12q5.97,0 8.81,-3.85q2.85,-3.83 4.84,-9.52l0,0q3.69,-15.78 6.89,-26.03q3.2,-10.23 4.05,-12.22l0,0q1.42,-3.42 5.41,-3.56l0,0q3.97,0.14 7.52,5.63q3.56,5.47 3.56,8.45l0,0q-0.28,9.96 -12.36,50.2l0,0q9.24,-7.26 18.34,-17.77l0,0q3.12,-3.71 5.26,-6.2q2.13,-2.49 3.41,-2.49l0,0q2,0 2,4.56l0,0q0,8.95 -10.04,20.9q-10.01,11.94 -24.52,18.62l0,0q-1.7,5.68 -3.69,10.82q-2,5.11 -5.12,8.94l0,0q-6.83,8.26 -20.75,8.26l0,0q-9.4,0 -16,-5.41q-6.61,-5.39 -6.61,-13.51l0,0q0,-4.54 3.06,-7.25q3.04,-2.7 8.37,-4.48q5.33,-1.78 12.44,-3.12q7.11,-1.36 15.23,-3.34l0,0q1.99,-8.53 2.7,-12.24zm-19.35,38.39l0,0q6.69,0 12.08,-11.65l0,0q-5.11,0.98 -9.08,1.5q-3.99,0.49 -6.83,0.91l0,0q-5.69,0.87 -5.55,3l0,0q0,2.68 3.2,4.54q3.2,1.86 6.18,1.7zm154.42,-61.55l0,0q2.41,0 2.41,6.53l0,0q0,3.56 -2.98,8.61q-2.98,5.04 -7.76,9.24q-4.76,4.19 -10.59,6.9q-5.82,2.7 -11.09,2.7q-5.26,0 -8.24,-1.99q-2.98,-2 -4.7,-5.41l0,0q-2.41,-4.84 -3.97,-18.41q-1.58,-13.58 -3.14,-18.98l0,0q-3.69,-0.71 -6.45,-2.92q-2.79,-2.21 -2.79,-5.41q0,-3.2 2.92,-4.62q2.91,-1.42 6.68,-1.42q3.77,0 6.75,1.85l0,0q3.99,-3.27 6.48,-7.74q2.49,-4.48 2.49,-12.08q0,-7.62 -5.12,-12.17q-5.13,-4.54 -15.01,-4.54q-9.87,0 -15.14,1.56q-5.25,1.56 -9.03,3.42q-3.77,1.84 -6.67,3.4q-2.92,1.57 -5.49,1.57q-2.55,0 -2.55,-1.63q0,-1.64 2.71,-5.34q2.68,-3.69 7.96,-7.4l0,0q13.21,-9.24 29.85,-9.16q16.63,0.08 27.43,6.32l0,0q12.66,7.4 12.66,22.19l0,0q0.14,12.22 -6.4,20.32q-6.53,8.12 -16.21,11.67l0,0q2.13,4.68 3.5,10.09q1.34,5.39 2.62,9.96q1.28,4.54 2.92,7.52q1.62,3 3.97,3q2.35,0 5.69,-2.78q3.34,-2.77 6.62,-6.05q3.27,-3.25 5.9,-6.04q2.63,-2.76 3.77,-2.76zm-61.85,-51.19l0,0q1.84,0 1.84,4.84q0,4.82 -0.57,9.08l0,0q-1.27,8.26 -3.26,15.37l0,0q-5.12,19.33 -5.12,22.61l0,0l0,20.89q0,7.68 -5.84,10.52l0,0q-2.69,1.29 -5.17,2.41q-2.49,1.15 -5.63,1.15l0,0q-5.97,0 -5.97,-13.72q0,-13.73 6.4,-34.62q6.4,-20.89 13.37,-31.85l0,0q1.42,-2.14 4.11,-4.41q2.7,-2.27 5.84,-2.27zm90.29,69.24l0,0q11.08,0 21.46,-8.81l0,0q3.83,-3.28 6.26,-6.04q2.41,-2.79 3.7,-2.79l0,0q1.99,0 1.99,3.99q0,3.99 -2.13,8.89q-2.14,4.89 -7.11,9.59l0,0q-12.24,11.52 -33.57,11.52l0,0q-16.91,0 -23.03,-12.23l0,0q-2.13,-4.26 -2.13,-12.22q0,-7.96 3.12,-16.57q3.14,-8.61 8.33,-14.85q5.18,-6.26 12.01,-9.75q6.83,-3.48 14.57,-3.48q7.74,0 11.95,3.83q4.19,3.85 4.19,9.95q0,6.13 -3.06,10.04q-3.04,3.91 -7.88,6.53q-4.84,2.63 -10.75,4.7q-5.9,2.06 -11.59,4.62l0,0l0,3.56q0.16,5.11 4.27,7.24q4.13,2.14 9.4,2.28zm-2.43,-40.09l0,0q-7.39,0 -10.23,17.2l0,0q2.98,-2 5.61,-3.56q2.62,-1.56 4.62,-2.98l0,0q4.26,-3.14 4.4,-7.11l0,0q0,-3.55 -4.4,-3.55zm61.14,-13.29q9.53,-0.08 14.21,3.55q4.7,3.62 4.7,10.37q0,6.75 -4.04,11.51q-4.07,4.78 -9.9,6.76l0,0q4.13,4.26 7.47,8.69q3.33,4.4 3.33,9.24l0,0q0,9.52 -7.52,14.71q-7.54,5.19 -20.97,5.19q-13.45,0 -20.12,-5.33q-6.68,-5.33 -6.68,-12.08q0,-6.76 3.34,-12.31q3.34,-5.55 7.17,-5.55l0,0q2.29,0 3.28,1.64q0.98,1.64 3.69,9.46l0,0q1.01,2.85 3.28,5.39l0,0q5.25,5.83 16.62,5.83l0,0q-1.69,-5.39 -5.47,-9.3q-3.77,-3.91 -7.46,-7.61q-3.69,-3.71 -6.54,-7.89q-2.84,-4.19 -2.84,-9.88l0,0q0,-10.25 7.68,-16.65l0,0q7.25,-5.68 16.77,-5.74zm-0.58,26.36l0,0q5.69,-6.1 5.69,-9.81l0,0q0,-1.7 -1.2,-3.04q-1.21,-1.37 -3.48,-1.37q-2.27,0 -4.34,0.58q-2.06,0.57 -3.34,0.84l0,0q0,5.42 6.67,12.8z" fill="#209cee" id="svg_5" transform="matrix(0.815984 0 0 0.815984 0 20.8696)"/>
  </g>
 </g>
</svg>